<?xml version="1.0" encoding="UTF-8" standalone="no"?>
<svg
   xmlns:dc="http://purl.org/dc/elements/1.1/"
   xmlns:cc="http://creativecommons.org/ns#"
   xmlns:rdf="http://www.w3.org/1999/02/22-rdf-syntax-ns#"
   xmlns:svg="http://www.w3.org/2000/svg"
   xmlns="http://www.w3.org/2000/svg"
   id="svg29"
   version="1.1"
   height="1056"
   width="816">
  <defs
     id="defs33" />
  <metadata
     id="metadata8">image/svg+xml<rdf:RDF>
  <cc:Work
     rdf:about="">
    <dc:format>image/svg+xml</dc:format>
    <dc:type
       rdf:resource="http://purl.org/dc/dcmitype/StillImage" />
  </cc:Work>
</rdf:RDF>
</metadata>
  <g
     id="g27">
    <g
       id="svg_1">
      <path
         fill="none"
         fill-rule="evenodd"
         d="m0,1056.13331l816.13331,0l0,-1056.13331l-816.13331,0l0,1056.13331z"
         id="path12" />
      <path
         fill="#704934"
         fill-rule="evenodd"
         d="m363.78666,694.53334c22.53333,13.73333 56.48,19.50667 57.01333,20.44c10.4,85.06667 10.4,150.93333 10.8,153.2c-41.2,-46.93334 -71.6,-63.06667 -70.8,-64c-6.93333,-31.6 -8.66666,-63.6 -8.8,-64.8l10.8,9.77333c0.32,0.10667 1.38667,3.61334 1.82667,6.02667c0.24,0.41333 9.45333,43.34667 58.90666,91.48c-42.90666,-51.02667 -51.8,-97.10667 -51.58666,-96.88l-8.16,-55.24z"
         id="path14" />
      <!-- try oolean shapes -->
      <path
         fill="#171008"
         fill-rule="evenodd"
         d="m140.73333,263.44002c1.25333,-2.09333 30.52,-106.2 36.17333,-224.70666c3.44,0.32 113.78667,63.56 324.29333,59.33333c0.52,0.09333 -30.2,82.89333 -4.92,293.78666c0.77333,1.86667 -36.37334,7.01333 -52.45334,8.46667c0.10667,-0.33334 -23.05333,48.17333 -16.98666,136.62666c-0.02667,0.28 31.93333,22.17333 50.26666,30.04c-1.86666,0.01333 32.28,-8.77334 66.77334,-12.78667c0.78666,0.44 2.04,77.49333 16.82666,149.38666c-0.56,0.10667 4.58667,-0.26666 6.88,-0.38666c-0.66667,-0.94667 2.16,4.73333 3.24,7.10666c2.64,-0.78666 27.90667,-17.16 63.14667,-30.42666c0.42666,2.78666 -5.61334,40.64 -2.26667,78.70666c0.77333,-0.33333 36.64,4.34667 98.22666,-24.68c-1.09333,1.21334 -52.91999,51.52 -99.45333,114.25333c0.92,-0.21333 -46.86666,-4.88 -99.36,-3.36c-1.78666,0.93334 -69.33333,75.02667 -110.01333,106.98934c-0.62666,-3.21067 -25.45333,-37.02934 -46.52,-49.976c-3.41333,0.69333 -37.45333,15.64 -58.63999,30.71333c0.06666,-1.23467 -32.62667,-57.43333 -28.13334,-211.86c-1.74666,-2.22666 19.81334,7.74667 46.34667,13.24c-5.94667,-44.46666 -45.74667,-235.45332 -168.84,-355.85332c0.52,-2.10667 4.93334,-26.4 16.56,-59.6c-1.57333,-4.88 -25.69333,-36.8 -41.14666,-55.01333z"
         id="path16" />
      <g
         transform="matrix(1.3333333,0,0,-1.3333333,0,1056) "
         id="g18">
        <path
           fill="#ffffff"
           fill-rule="evenodd"
           d="m314.05,217.25c0.58,0.34 16,61.19 49.58,121.17c17.41,-10.64 46.59,-52.91 48.22,-54.16l2.92,-22.47l-86.76,-70.16l4.96,2.33l84.29,63.25l2.08,0l-0.41,-5l-64.51,-62.01l69.5,61.18l34.55,17.06c-1.84,-1.8 -54.91,-107.67 -134.6,-171.88c1.23,1.21 -2.79,61.7 -9.82,120.69z"
           id="path26" />
      </g>
      <!-- top front red/back piece -->
      <path
         fill="#784934"
         fill-rule="evenodd"
         d="m193.6,65.20002c1.17333,1.37334 26.93333,76.54667 48.13333,173.30667c-9.57334,7.29333 10.4,121.07999 21.36,122.54666c36.21333,1.96 49.87999,49.93333 216.73332,23.36c-0.37333,-0.16 -16.54666,-132.10666 0,-269.54666c-4.10666,-0.17333 -105.99999,14.53333 -286.22666,-49.66666l0.00001,-0.00001z"
         id="path28" />
      <path
         fill="#784934"
         fill-rule="evenodd"
         d="m552.73332,808.68001c41.05333,-54.48 65.98667,-100.6 66.08,-101.61333c-3.66667,30.03999 -0.76,55.11999 -1.12,55.73333c-0.65333,-0.45334 -13.42667,4.84 -51.85333,30.72c44.36,-23.70667 50.4,-21.96 52.73333,-23.49334c-1.53333,0.85334 26.08,0.96 45.74666,-5.61333c0.54667,0.26667 -46.14666,21.6 -111.58666,44.26667z"
         id="path30" />
      <path
         fill="#58130c"
         fill-rule="evenodd"
         d="m312.16929,741.26428c5.22667,1.12 23.32691,7.08001 24.54024,7.4c1.53939,13.12 2.45781,19.30356 5.71539,32.41022c-1.77334,-1.44 -16.92229,-16.81022 -30.25563,-39.81022z"
         id="path32" />
      <path
         fill="#000000"
         fill-rule="evenodd"
         d="m489.86665,635.68001l-7.14666,-4.57333c-0.76,-0.24 -5.36,6.92 -8.04,13.33333c1.2,2.66667 12.06666,14.97333 21.66666,24.18667c4.32,-10.54667 8.92,-28.16 8.93334,-30.36c-3.98667,-6.74667 -11.77334,-11.78667 -11.56,-11.74667l-3.85334,9.16z"
         id="path34" />
      <path
         fill="#753728"
         fill-rule="evenodd"
         d="m494.54665,641.25334l-6.74666,-3.72c-0.41334,0.25334 -2.56,2.50667 -4.76,7.08c4.38666,5.18667 9.70666,9.45334 14.56,14.18667c1.73333,-5.45333 2.66667,-10.78667 4,-16.17333c-0.30667,-0.84 -2.81334,-4.22667 -5.45333,-5.08l-1.60001,3.70666z"
         id="path36" />
      <path
         fill="#784934"
         fill-rule="evenodd"
         d="m327.10666,870.86667l10.78666,16l7.18667,-6.8c9.45333,6 23.70667,16.8 22.36,16.8c-15.84,4.53333 -43.28,17.06667 -43.93333,18.4c-2.78667,-30.8 2.8,-44.4 3.6,-44.4z"
         id="path38" />
      <path
         fill="#58130c"
         fill-rule="evenodd"
         d="m296.77333,743.40001c14.12,26.66666 31.04,40.13333 31.56,40.4c0.13333,45.86666 6.26666,73.33333 6.39999,73.99999c-0.38666,-0.4 -12.38666,-5.2 -26.37333,-47.99999c6,40.13333 12.38667,53.06666 11.18667,53.19999c-3.2,10.4 -2.8,42.4 -3.6,42c-21.17334,-83.86666 -20.37334,-161.73333 -19.17334,-161.59999l0.00001,0z"
         id="path40" />
      <path
         fill="#784934"
         fill-rule="evenodd"
         d="m347.78666,746.86667c22.53333,13.73334 58.60766,19.08114 63.39631,20.01447c10.4,85.06667 4.01702,151.35886 4.41702,153.62553c-41.2,-46.93333 -71.6,-63.06667 -70.8,-64c-6.93333,-31.6 -8.66666,-63.6 -8.8,-64.8l10.8,9.77334c0.32,0.10666 1.38667,3.61333 1.82667,6.02666c0.24,0.41334 9.45333,43.34667 58.90666,91.48c-42.90666,-51.02666 -51.8,-97.10666 -51.58666,-96.88l-8.16,-55.24z"
         id="path42" />
      <path
         fill="#000000"
         fill-opacity="0.5098"
         fill-rule="evenodd"
         d="m104.13333,1017.16667c0,-3.516 95.25333,-6.36667 212.77333,-6.36667c117.50666,0 212.75999,2.85067 212.75999,6.36667c0,3.516 -95.25333,6.36666 -212.75999,6.36666c-117.52,0 -212.77333,-2.85066 -212.77333,-6.36666z"
         id="path44" />
      <path
         fill="#58130c"
         fill-rule="evenodd"
         d="m187.17606,75.23251c20.31122,52.23259 36.02485,109.06279 54.03727,163.59418c0.92,7.69333 16.12,99.10666 18.02666,105.33333c3.25334,14.09333 54.53333,38.81333 117.30667,47.69333c-97.01333,-2.69333 -137.18667,-40.92 -137.96,-43.62667c-3.14667,-7.46666 -5.25333,-16.17333 -7.21333,-21.86666c-2.90667,10.90666 -7.62667,31.96 -0.58667,52.41333c-0.10667,-9.64 1.17333,-43.89333 21.24,-6.76c31.96,101.81333 69.45333,163.86666 104,244.66666c13.53333,-7.77333 33.14666,-15.25333 33.01333,-14.81333c7.90666,31.90666 4.89333,35.66666 7.84,57.85333c-0.58667,1 7.51092,39.4437 10.46638,72.71234c-4.77305,0.10667 -41.19971,-3.23234 -64.65305,-25.60568c0.61334,0.49334 -28.57333,-104.41333 -54.08,-170.31999c11.94667,11.89333 40.14667,60.34666 39.94667,58.42666c-13.16,-22.12 -53.73333,-108.83999 -148.42666,-219.69332c-0.13334,-0.2 0.93333,-30 22.38666,-94.22667c-0.49333,-1.06667 -10.97333,18.28 -15.06666,27.2c1.32,0.65333 -16.57334,-27.49333 -32.05334,-46.05333c1.81334,-0.70667 20.77607,-68.19418 31.77607,-186.92751z"
         id="path46" />
      <!-- front upsidown v -->
      <path
         fill="#784934"
         fill-rule="evenodd"
         d="m380.59999,605.22668c4.09333,-1.89333 67.49333,-26.77333 156.06666,-41.92c-0.06666,48.24 6.58667,84.54666 6.44,87.62666c-31.32,-35.52 -60.74666,-58.50666 -61.21333,-58.30666c-32.84,50.17333 -68.6,132.89333 -68.61333,134.01333l-18.68,-74.09333c-4.66667,-16.09334 -9.33333,-31.22667 -14,-47.32z"
         id="path48" />
    </g>
  </g>
</svg>
